<svg xmlns="http://www.w3.org/2000/svg" width="64" height="64" viewBox="0 0 64 64">
  <defs>
    <linearGradient id="g1" x1="0%" y1="0%" x2="100%" y2="100%">
      <stop offset="0%" style="stop-color:#38bdf8"/>
      <stop offset="50%" style="stop-color:#6366f1"/>
      <stop offset="100%" style="stop-color:#8b5cf6"/>
    </linearGradient>
    <linearGradient id="g2" x1="0%" y1="0%" x2="100%" y2="100%">
      <stop offset="0%" style="stop-color:#6366f1"/>
      <stop offset="100%" style="stop-color:#a855f7"/>
    </linearGradient>
  </defs>
  <!-- Background circle -->
  <circle cx="32" cy="32" r="30" fill="#0f0f1a"/>
  <!-- Face silhouette arc -->
  <path d="M20 48 Q14 38 16 26 Q18 14 30 12 Q42 10 46 22 Q50 34 44 44" stroke="url(#g1)" stroke-width="2.5" fill="none" stroke-linecap="round"/>
  <!-- Bar chart bars -->
  <rect x="22" y="30" width="4" height="14" rx="1" fill="url(#g2)" opacity="0.85"/>
  <rect x="28" y="24" width="4" height="20" rx="1" fill="url(#g2)"/>
  <rect x="34" y="27" width="4" height="17" rx="1" fill="url(#g2)" opacity="0.9"/>
  <!-- Line graph -->
  <polyline points="22,36 28,30 34,33 40,26" stroke="#a855f7" stroke-width="1.8" fill="none" stroke-linecap="round" stroke-linejoin="round"/>
  <circle cx="22" cy="36" r="1.5" fill="#a855f7"/>
  <circle cx="28" cy="30" r="1.5" fill="#a855f7"/>
  <circle cx="34" cy="33" r="1.5" fill="#a855f7"/>
  <circle cx="40" cy="26" r="1.5" fill="#a855f7"/>
  <!-- Pixel particles -->
  <rect x="42" y="18" width="3" height="3" rx="0.5" fill="#38bdf8" opacity="0.9"/>
  <rect x="47" y="15" width="2" height="2" rx="0.3" fill="#38bdf8" opacity="0.7"/>
  <rect x="46" y="21" width="2.5" height="2.5" rx="0.4" fill="#6366f1" opacity="0.8"/>
  <rect x="50" y="19" width="1.5" height="1.5" rx="0.3" fill="#a855f7" opacity="0.6"/>
  <!-- Sparkle star -->
  <path d="M48 12 L49 15 L52 16 L49 17 L48 20 L47 17 L44 16 L47 15 Z" fill="#38bdf8" opacity="0.9"/>
</svg>
